<?xml version="1.0" standalone="no"?>
<!DOCTYPE svg PUBLIC "-//W3C//DTD SVG 20010904//EN"
 "http://www.w3.org/TR/2001/REC-SVG-20010904/DTD/svg10.dtd">
<svg version="1.0" xmlns="http://www.w3.org/2000/svg"
 width="705.000000pt" height="705.000000pt" viewBox="0 0 705.000000 705.000000"
 preserveAspectRatio="xMidYMid meet">
<metadata>
Created by potrace 1.14, written by Peter Selinger 2001-2017
</metadata>
<g transform="translate(0.000000,705.000000) scale(0.100000,-0.100000)"
fill="#000000" stroke="none">
<path d="M3089 6246 c-1 -3 -2 -10 -3 -14 -2 -13 -29 -37 -49 -45 -17 -6 -17
-9 -2 -38 13 -24 14 -34 4 -45 -10 -12 -14 -11 -31 8 -11 13 -26 22 -33 20 -7
-1 -31 6 -55 17 -35 15 -48 17 -74 8 -50 -17 -56 -29 -59 -115 -1 -28 3 -46
13 -52 8 -5 11 -12 8 -15 -10 -10 -28 4 -28 21 0 8 -4 13 -9 9 -5 -3 -12 -1
-16 5 -9 14 -15 13 -52 -10 -28 -16 -31 -23 -24 -42 9 -26 4 -51 -10 -42 -5 3
-9 -3 -9 -12 0 -16 -1 -16 -18 -1 -17 15 -18 15 -19 -6 -1 -12 -3 -44 -5 -71
-2 -33 1 -51 10 -54 6 -2 10 -8 6 -13 -3 -5 -2 -8 3 -7 4 1 19 -2 33 -6 l25
-9 -25 -10 -25 -11 29 -4 c17 -2 32 2 37 9 4 8 11 10 15 7 10 -10 -24 -40 -36
-33 -15 9 -40 -13 -34 -30 3 -7 -3 -16 -15 -20 -35 -11 -27 -59 9 -57 3 0 11
-6 18 -14 10 -11 8 -15 -8 -24 -16 -9 -18 -8 -14 5 4 9 0 15 -9 15 -10 0 -15
-7 -12 -20 2 -11 1 -19 -3 -19 -4 1 -25 1 -47 0 -30 -1 -36 -4 -25 -11 12 -8
11 -10 -6 -10 -11 0 -30 -9 -42 -20 -12 -11 -26 -20 -32 -20 -6 0 -8 -4 -5
-10 3 -5 -1 -10 -9 -10 -9 0 -15 -3 -14 -7 3 -14 -13 -53 -22 -53 -11 0 -23
-36 -26 -75 -3 -45 -3 -47 -11 -42 -5 3 -9 -7 -10 -21 -9 -108 -24 -140 -68
-142 -11 -1 -14 -4 -8 -7 10 -4 10 -7 0 -16 -25 -23 -58 -38 -70 -30 -7 4 -5
-2 3 -12 13 -17 13 -18 -1 -13 -10 4 -19 -3 -28 -23 -8 -18 -17 -26 -24 -22
-7 4 -6 -1 2 -10 11 -14 11 -20 0 -34 -12 -14 -12 -15 -1 -9 12 7 12 4 2 -15
-7 -12 -21 -32 -31 -43 -11 -11 -19 -24 -19 -29 0 -6 -8 -16 -17 -24 -11 -8
-12 -11 -3 -7 12 6 13 5 3 -7 -7 -8 -10 -25 -6 -37 3 -14 1 -22 -8 -22 -7 0
-10 -2 -7 -6 11 -10 -29 -99 -42 -96 -11 2 -10 0 1 -14 8 -9 13 -19 12 -21 -2
-1 -3 -12 -3 -23 0 -14 7 -20 22 -20 21 0 21 0 2 -22 -16 -19 -16 -20 -1 -9 9
8 20 12 22 9 8 -8 -30 -38 -54 -43 -11 -2 -26 -7 -32 -11 -6 -3 -15 0 -20 7
-4 7 -11 11 -14 7 -3 -3 1 -13 10 -22 15 -15 15 -16 -3 -16 -20 0 -51 -30 -71
-72 -8 -15 -19 -25 -24 -21 -6 3 -7 1 -3 -5 7 -11 -5 -38 -36 -81 -10 -13 -18
-32 -18 -42 0 -14 -7 -19 -26 -19 -14 0 -23 -4 -19 -10 3 -5 1 -10 -5 -10 -6
0 -9 -4 -5 -9 3 -5 -2 -17 -11 -25 -14 -14 -17 -14 -31 -1 -8 9 -18 13 -21 10
-7 -6 30 -35 39 -30 3 2 2 -18 -1 -44 -3 -27 -3 -57 1 -67 3 -11 1 -22 -4 -26
-6 -4 -10 -26 -9 -49 3 -34 0 -40 -13 -35 -9 3 -13 2 -10 -4 3 -6 -4 -28 -16
-50 -23 -41 -23 -42 8 -101 6 -9 -34 -49 -41 -42 -4 4 -4 0 -1 -9 4 -9 2 -25
-4 -36 -5 -10 -11 -39 -12 -63 -3 -52 -8 -71 -19 -64 -4 2 -5 -8 -3 -23 4 -21
2 -24 -6 -12 -9 12 -10 11 -8 -8 2 -13 10 -27 17 -32 7 -5 15 -16 16 -25 3
-20 30 -47 59 -60 18 -7 17 -9 -10 -14 -24 -5 -29 -11 -27 -29 2 -13 -1 -29
-6 -35 -5 -7 -12 -34 -15 -62 -4 -27 -9 -59 -11 -70 -3 -11 -5 -22 -5 -25 -1
-3 -5 0 -9 7 -4 7 -9 -8 -10 -35 -7 -139 1 -241 18 -252 8 -5 17 -37 21 -71 4
-35 12 -65 18 -67 5 -2 8 -9 5 -17 -7 -17 32 -94 51 -102 8 -3 12 -10 8 -16
-3 -5 -1 -7 5 -3 6 3 17 0 25 -8 16 -16 117 -24 155 -12 12 4 22 14 22 22 0 8
7 14 15 14 8 0 14 3 14 8 -5 27 3 52 16 52 8 0 15 5 15 11 0 5 4 8 8 5 5 -3 9
14 11 36 3 55 4 60 19 76 7 8 10 18 7 23 -4 5 -1 9 4 9 6 0 10 3 10 8 -3 20 2
32 16 32 8 0 15 -6 15 -14 0 -8 8 -22 17 -32 10 -9 19 -29 21 -43 2 -14 8 -29
14 -32 6 -4 8 -19 6 -33 -3 -14 -2 -26 1 -26 6 0 7 -65 2 -92 0 -5 -17 -8 -38
-8 -20 0 -33 -3 -30 -6 4 -4 -3 -15 -14 -25 -11 -10 -22 -24 -23 -32 -1 -8 -7
-21 -12 -28 -27 -34 -79 -146 -76 -161 1 -5 -4 -8 -12 -8 -14 0 -32 -36 -28
-52 1 -5 -3 -8 -8 -8 -6 0 -10 -9 -10 -19 0 -11 -7 -26 -15 -34 -8 -8 -11 -18
-7 -22 4 -5 -2 -5 -13 -1 -15 5 -17 4 -9 -4 13 -13 6 -60 -8 -60 -5 0 -6 -4
-3 -10 3 -5 3 -10 -2 -10 -21 0 -34 -66 -36 -179 -1 -91 1 -121 11 -121 6 0
12 -4 12 -10 0 -5 -4 -10 -8 -10 -4 0 -8 -9 -9 -20 -1 -11 3 -20 8 -20 6 0 10
-21 9 -47 -4 -106 -2 -113 25 -113 20 0 25 5 25 24 0 14 5 28 10 31 6 4 8 12
4 18 -3 7 2 3 10 -7 9 -11 16 -30 16 -43 0 -13 5 -23 11 -23 5 0 7 -5 4 -11
-4 -5 3 -18 14 -28 12 -10 21 -26 21 -34 0 -27 32 -37 52 -16 9 9 14 20 10 23
-3 3 -1 6 5 6 15 0 9 50 -7 60 -8 6 -12 10 -8 10 4 0 3 11 -2 25 -7 20 -6 25
5 25 8 0 15 5 15 10 0 15 47 12 53 -2 4 -10 6 -10 6 0 1 18 21 5 21 -14 0 -8
-7 -14 -15 -14 -8 0 -14 -5 -12 -12 1 -7 -3 -12 -10 -13 -6 0 -15 -4 -20 -8
-4 -5 -3 -8 2 -7 19 4 48 0 43 -6 -4 -3 0 -20 7 -39 8 -18 11 -36 7 -39 -3 -4
0 -11 8 -16 7 -4 15 -19 17 -31 4 -28 8 -32 36 -35 12 -1 34 -4 49 -7 15 -2
25 0 22 4 -3 5 4 9 15 9 19 0 26 -10 22 -33 -1 -4 8 -3 20 3 11 7 23 9 27 6 3
-3 0 -6 -8 -6 -10 0 -10 -3 1 -16 17 -21 19 -72 2 -111 -7 -18 -10 -33 -6 -34
5 0 -1 -4 -11 -8 -11 -4 -21 -16 -22 -26 -3 -18 19 -48 29 -39 3 3 15 0 27 -6
12 -7 20 -8 17 -3 -3 5 4 10 16 10 17 2 19 0 7 -7 -9 -6 -10 -10 -3 -10 6 0
15 5 19 11 4 8 9 7 15 -2 6 -10 9 -11 9 -1 0 6 7 12 16 12 9 0 12 5 8 13 -6 9
-5 9 7 0 8 -6 18 -11 22 -11 5 0 11 -3 15 -6 3 -3 0 -6 -6 -6 -7 0 -12 -5 -12
-11 0 -5 4 -8 9 -5 4 3 17 -2 27 -10 17 -14 17 -15 1 -10 -10 3 -16 2 -13 -3
3 -5 39 -8 78 -8 59 2 73 5 71 17 -2 8 7 21 18 28 12 8 18 9 14 3 -8 -14 11
-14 36 0 11 5 17 14 14 20 -4 5 -1 9 4 9 6 0 11 7 11 16 0 8 4 13 9 10 5 -4
12 0 14 6 4 10 6 10 6 1 1 -7 14 -13 30 -13 21 0 32 -6 36 -20 3 -11 11 -20
16 -20 6 0 7 -5 4 -10 -3 -5 2 -10 11 -10 10 0 15 -3 11 -6 -16 -16 26 -34 80
-34 56 -1 110 -22 81 -33 -7 -2 1 -4 19 -3 17 0 31 4 30 7 -2 7 3 9 29 9 8 0
12 -4 9 -10 -3 -5 1 -10 9 -10 8 0 18 5 21 11 4 6 13 8 21 5 14 -6 38 27 27
38 -3 3 1 6 11 6 9 0 15 4 12 9 -4 5 -1 11 5 13 7 2 12 18 13 35 1 32 16 37
39 14 9 -10 8 -11 -8 -6 -18 6 -18 5 -2 -5 9 -6 22 -8 27 -5 6 3 10 1 10 -4 0
-6 20 -11 45 -11 43 0 45 -1 45 -30 0 -24 4 -30 21 -30 11 0 18 -4 14 -9 -3
-5 1 -16 9 -24 8 -8 12 -17 9 -21 -4 -3 3 -6 15 -6 23 0 64 -29 57 -40 -3 -4
7 -5 20 -2 21 4 24 1 19 -14 -5 -18 -5 -18 6 -1 11 17 36 25 26 8 -7 -10 19
-9 30 1 3 4 14 -2 25 -13 21 -21 25 -34 7 -23 -7 4 -8 3 -4 -4 11 -18 58 -14
86 8 14 11 30 20 35 20 6 0 3 -5 -5 -10 -9 -6 -10 -10 -3 -10 7 0 17 9 23 20
6 11 18 20 26 20 9 0 12 5 8 11 -5 8 1 10 20 7 14 -3 29 -1 33 5 3 5 1 7 -5 3
-6 -3 -13 -2 -16 3 -9 13 19 7 38 -8 9 -7 16 -10 16 -5 0 4 5 3 12 -4 7 -7 21
-12 33 -12 12 0 27 -6 34 -12 11 -11 12 -10 6 2 -6 12 -5 13 6 3 14 -14 89
-18 89 -5 0 4 14 9 31 10 18 1 37 6 43 9 17 11 35 12 42 2 8 -14 26 -11 18 4
-4 6 5 1 21 -13 16 -14 24 -18 20 -10 -8 13 -6 13 8 1 18 -14 86 -21 93 -9 3
4 12 4 20 1 10 -4 17 2 21 16 3 11 10 21 15 21 5 0 6 5 3 10 -3 6 2 10 12 11
10 0 28 2 40 3 13 2 32 -7 45 -21 12 -13 28 -23 35 -23 8 0 12 -4 8 -10 -7
-11 30 -50 48 -50 8 0 7 4 -3 10 -12 8 -8 10 15 11 17 1 36 1 44 0 8 -2 10 2
5 11 -6 10 -5 11 8 1 8 -7 18 -10 22 -6 6 7 29 13 54 15 6 1 10 4 7 6 -10 10
46 39 68 35 12 -2 36 3 52 11 17 9 26 16 22 16 -4 0 4 11 19 25 15 14 34 23
41 21 7 -3 13 -1 13 3 0 5 10 7 23 5 12 -2 16 -2 9 2 -6 3 -10 9 -7 13 2 4 5
24 7 44 1 20 5 34 9 32 7 -5 29 39 29 59 0 9 -12 13 -37 11 -68 -5 -79 -6 -65
-12 10 -4 8 -9 -7 -20 -19 -13 -23 -12 -37 1 -18 19 -25 73 -12 99 5 10 12 31
14 45 6 34 17 45 40 40 16 -3 19 -12 17 -49 -2 -38 1 -45 17 -46 18 -2 25 8
21 30 0 4 6 7 14 7 8 0 15 5 15 10 0 6 10 10 23 10 13 0 29 6 36 13 11 10 13
10 7 -1 -5 -8 2 -12 21 -13 15 -1 31 -1 36 0 4 0 7 -5 7 -13 0 -8 5 -18 12
-22 7 -5 8 -3 3 7 -5 8 1 6 13 -5 12 -10 19 -23 15 -29 -3 -6 -1 -7 6 -3 6 4
8 12 5 18 -5 7 -1 9 9 5 11 -4 17 -1 17 8 0 8 5 15 11 15 5 0 7 5 4 10 -3 5
-1 10 5 10 7 0 11 14 9 32 -3 54 0 80 11 73 12 -7 13 24 2 42 -4 6 -20 13 -36
15 l-28 3 22 27 c12 15 18 32 15 38 -3 5 -2 10 3 10 10 0 10 55 0 66 -11 11
-10 54 1 54 12 0 8 35 -8 73 -6 15 -14 40 -17 55 -4 15 -10 29 -13 32 -12 10
-31 50 -31 65 0 9 -4 13 -10 10 -8 -5 -15 22 -11 47 0 4 -5 5 -13 2 -12 -5
-34 32 -42 71 -1 6 -3 15 -4 20 -1 6 -2 13 -1 18 0 4 -4 7 -9 7 -6 0 -10 7
-10 15 0 8 -5 15 -11 15 -6 0 -9 7 -5 15 3 8 1 15 -4 15 -5 0 -6 7 -3 17 4 10
2 14 -4 10 -6 -4 -14 0 -17 9 -4 10 -2 13 7 8 6 -4 3 2 -7 14 -21 24 -31 29
-20 10 6 -9 3 -9 -9 0 -9 8 -15 19 -14 25 1 6 -8 16 -20 22 -13 7 -20 15 -16
18 3 4 -1 7 -11 7 -9 0 -14 5 -11 10 3 5 1 10 -4 10 -6 0 -11 9 -11 21 0 11
-9 34 -21 50 -11 16 -17 29 -13 29 4 0 -1 9 -10 19 -17 19 -17 20 3 30 11 6
30 11 43 11 18 0 20 2 8 10 -12 8 -11 10 8 10 12 0 22 5 22 10 0 6 7 10 16 10
8 0 12 5 9 10 -3 5 -1 10 5 10 6 0 8 5 5 10 -3 6 -1 10 5 10 6 0 18 7 27 15 8
8 19 12 25 9 7 -4 8 -2 4 4 -4 7 2 21 13 33 11 12 18 27 14 32 -3 6 -1 7 5 3
6 -3 17 1 25 9 9 8 21 15 27 15 6 0 8 5 5 10 -3 6 5 10 19 10 14 0 28 -4 31
-10 3 -5 12 -10 18 -10 8 0 8 3 -2 9 -9 6 -10 11 -2 15 6 4 9 12 6 17 -4 5 -1
9 4 9 6 0 10 3 9 8 -1 4 5 21 15 38 9 17 13 34 10 38 -4 3 -1 6 6 6 15 0 34
18 50 48 7 12 16 20 22 17 5 -4 9 -1 9 5 0 6 6 10 13 9 24 -3 38 1 32 10 -3 6
5 20 17 32 13 12 17 19 11 15 -7 -4 -13 -2 -13 4 0 13 41 30 55 22 6 -3 7 -2
3 2 -7 8 0 18 38 60 26 28 54 196 32 196 -5 0 -7 4 -3 9 3 5 1 12 -5 16 -6 3
-8 17 -6 31 3 13 0 24 -5 24 -5 0 -9 6 -9 14 0 8 -6 16 -14 19 -10 4 -13 15
-9 34 2 15 6 33 7 38 1 6 6 17 10 25 5 8 6 12 1 8 -4 -4 -16 -3 -27 3 -15 8
-18 18 -14 54 2 27 0 42 -6 39 -5 -3 -8 0 -7 7 4 22 -20 71 -31 64 -9 -6 -15
38 -11 73 1 8 -7 16 -19 19 -16 4 -18 8 -8 14 10 7 9 9 -4 9 -9 0 -20 9 -23
20 -3 11 -13 20 -21 20 -12 0 -18 12 -11 25 1 2 -6 10 -15 17 -11 8 -20 32
-23 63 -2 28 -9 66 -15 84 -7 26 -7 37 3 44 8 6 7 7 -5 4 -15 -5 -34 17 -30
36 1 4 -3 7 -9 7 -6 0 -8 9 -4 21 5 16 4 19 -6 14 -9 -6 -11 -3 -6 8 4 11 1
17 -9 17 -8 0 -12 5 -9 10 3 6 -5 10 -19 10 -14 0 -27 4 -30 8 -4 7 -14 82
-19 142 -1 14 -4 27 -7 30 -10 9 -30 61 -30 76 0 9 -7 22 -15 31 -8 8 -13 19
-10 24 4 5 1 9 -4 9 -6 0 -11 6 -11 13 0 10 -14 30 -61 85 -7 9 -8 17 0 26 8
9 7 13 -4 13 -8 0 -12 -4 -9 -9 6 -9 -8 -11 -30 -2 -9 3 -16 14 -16 23 0 14
-2 14 -10 1 -6 -9 -10 -10 -10 -3 0 6 -15 13 -32 15 -30 3 -33 6 -33 35 0 17
-2 30 -5 28 -3 -2 -15 10 -25 26 -11 16 -25 29 -31 29 -6 0 -22 8 -35 19 -13
10 -42 24 -64 32 -22 8 -47 20 -57 28 -16 14 -14 40 5 52 6 4 6 15 2 25 -14
33 -16 56 -4 49 14 -9 -16 49 -33 62 -14 11 -53 11 -64 0 -15 -15 -20 -6 -18
33 1 22 -3 40 -7 40 -5 0 -9 9 -9 19 0 11 -10 27 -22 35 -12 9 -19 16 -15 16
4 0 -3 10 -15 22 -21 21 -21 22 -2 29 10 3 23 4 28 1 5 -3 6 0 2 6 -3 6 -16 9
-27 7 -17 -4 -19 -2 -9 10 15 18 -1 20 -18 3 -17 -17 -25 -3 -12 21 6 12 8 26
5 31 -3 6 0 10 7 10 7 0 -1 8 -19 16 -18 9 -35 25 -38 35 -4 10 -11 19 -17 19
-7 0 -6 5 1 14 9 11 9 16 0 22 -8 4 -9 3 -5 -4 5 -8 -1 -12 -18 -12 -14 0 -28
5 -31 10 -3 6 -16 10 -28 10 -18 0 -19 2 -7 10 11 7 2 10 -33 10 -36 0 -46 3
-41 13 5 7 2 7 -10 -2 -9 -8 -16 -10 -15 -5 2 10 -7 39 -22 66 -12 24 -11 28
6 28 8 0 15 4 15 8 0 4 -9 8 -19 8 -11 0 -17 -4 -15 -8 7 -11 -3 -10 -24 2 -9
5 -29 14 -44 20 -18 6 -26 14 -22 24 3 8 1 17 -5 21 -7 3 -8 0 -5 -9 4 -11 0
-13 -15 -9 -11 3 -19 8 -17 12 5 7 -16 10 -76 11 -21 0 -38 5 -38 10 0 9 15
14 33 11 5 -1 5 3 2 9 -4 6 -10 9 -13 6 -3 -3 -11 -1 -19 6 -11 8 -12 7 -7 -6
4 -12 1 -16 -14 -16 -12 0 -24 5 -27 10 -3 6 -20 10 -36 10 -17 0 -32 6 -35
15 -4 8 -10 13 -15 10 -13 -9 -60 6 -53 16 3 6 15 7 27 4 20 -6 21 -5 5 8 -10
8 -15 17 -11 21 4 4 -7 6 -25 4 -18 -1 -32 -6 -32 -11 0 -5 10 -5 21 -2 19 6
20 5 8 -8 -35 -37 -56 7 -22 45 8 9 12 22 8 27 -3 6 -1 11 4 11 6 0 11 11 11
24 0 18 -7 25 -30 30 -37 7 -38 24 -4 51 35 28 24 50 -27 54 -23 1 -47 -3 -54
-9 -11 -9 -12 -6 -6 17 5 16 14 27 22 25 8 -1 6 4 -5 13 -16 12 -22 12 -28 2
-5 -8 -8 -5 -8 9 0 12 -7 27 -15 34 -8 7 -15 19 -15 27 0 8 -4 11 -10 8 -5 -3
-10 -1 -10 4 0 6 -6 11 -12 11 -7 0 -24 12 -37 25 -13 14 -26 23 -29 21 -2 -3
-11 2 -19 10 -8 8 -19 12 -24 9 -5 -4 -9 -2 -9 3 0 5 -12 7 -27 5 -23 -4 -25
-2 -13 7 13 10 12 11 -3 6 -10 -3 -23 -6 -28 -6 -6 0 -8 -4 -5 -9 5 -7 -25
-18 -69 -26 -26 -5 -65 -26 -65 -35 0 -16 -27 -11 -34 6 -4 9 -4 19 -1 22 3 3
5 0 5 -6 0 -7 5 -12 10 -12 6 0 10 14 10 30 0 19 -5 29 -12 28 -7 -2 -12 3
-10 11 3 12 0 12 -12 1 -13 -10 -19 -10 -31 0 -8 7 -16 10 -16 6z m481 -264
c0 -8 -29 -32 -38 -32 -15 0 -22 28 -9 33 14 5 47 5 47 -1z m-630 -196 c0 -3
-4 -8 -10 -11 -5 -3 -10 -1 -10 4 0 6 5 11 10 11 6 0 10 -2 10 -4z m-90 -20
c0 -2 -11 -6 -25 -8 -14 -3 -25 -1 -25 3 0 5 11 9 25 9 14 0 25 -2 25 -4z
m705 -6 c4 -6 1 -9 -7 -8 -8 2 -12 -4 -10 -16 3 -17 2 -18 -12 -7 -15 12 -15
15 1 27 22 16 20 16 28 4z m-85 -25 c0 -1 -8 -5 -18 -7 -11 -3 -19 0 -19 7 0
7 8 10 19 7 10 -2 18 -6 18 -7z m-790 -55 c0 -5 -5 -10 -11 -10 -5 0 -7 5 -4
10 3 6 8 10 11 10 2 0 4 -4 4 -10z m717 -206 c-3 -3 -12 -4 -19 -1 -8 3 -5 6
6 6 11 1 17 -2 13 -5z m-619 -190 c3 -15 1 -17 -9 -6 -15 14 -61 16 -75 2 -6
-6 -15 -6 -24 1 -13 9 -13 10 0 8 8 -1 22 1 30 4 50 20 74 17 78 -9z m738 -8
c-3 -20 -26 -46 -40 -45 -7 0 -6 2 2 6 6 2 12 13 12 23 0 10 6 21 13 23 6 3
13 6 14 6 1 1 0 -5 -1 -13z m878 2 c-3 -4 -9 -8 -15 -8 -5 0 -9 4 -9 8 0 5 7
9 15 9 8 0 12 -4 9 -9z m129 -168 c3 -11 1 -20 -4 -20 -5 0 -9 9 -9 20 0 11 2
20 4 20 2 0 6 -9 9 -20z m-437 -111 c2 -5 -6 -8 -18 -7 -45 2 -59 -2 -52 -13
4 -7 1 -10 -6 -7 -8 2 -16 10 -18 18 -3 7 0 10 6 6 6 -3 13 -2 16 3 8 12 65
11 72 0z m-391 -19 c-3 -5 -23 -7 -43 -4 -53 8 -53 14 2 14 28 0 45 -4 41 -10z
m-678 -22 c-3 -8 -6 -5 -6 6 -1 11 2 17 5 13 3 -3 4 -12 1 -19z m233 12 c0 -5
-5 -10 -11 -10 -5 0 -7 5 -4 10 3 6 8 10 11 10 2 0 4 -4 4 -10z m-260 -27 l25
-12 -31 1 c-23 2 -30 7 -32 22 0 12 2 16 6 11 4 -6 18 -16 32 -22z m710 -28
c0 -5 -5 -3 -10 5 -5 8 -10 20 -10 25 0 6 5 3 10 -5 5 -8 10 -19 10 -25z m655
15 c-3 -5 -13 -10 -21 -10 -8 0 -12 5 -9 10 3 6 13 10 21 10 8 0 12 -4 9 -10z
m-279 -925 c-28 -26 -32 -44 -15 -78 10 -21 10 -21 -5 -3 -9 11 -16 28 -16 38
0 18 41 68 56 68 4 0 -5 -11 -20 -25z m-1186 -6 c0 -3 -9 -9 -20 -12 -19 -5
-27 3 -15 15 8 7 35 6 35 -3z m1316 -40 c5 -9 -53 -5 -62 4 -4 3 8 5 25 5 18
-1 34 -5 37 -9z m-674 -491 c-7 -7 -12 -8 -12 -2 0 6 3 14 7 17 3 4 9 5 12 2
2 -3 -1 -11 -7 -17z m60 0 c-7 -7 -12 -8 -12 -2 0 6 3 14 7 17 3 4 9 5 12 2 2
-3 -1 -11 -7 -17z m-1739 -16 c-10 -11 -22 -17 -26 -14 -5 2 0 10 10 18 26 20
36 17 16 -4z m1611 -7 c-4 -8 -11 -15 -16 -15 -6 0 -5 6 2 15 7 8 14 15 16 15
2 0 1 -7 -2 -15z m-1660 -40 c-23 -17 -44 -19 -44 -4 0 5 4 8 9 5 4 -3 17 1
27 9 10 7 21 11 23 9 3 -2 -4 -11 -15 -19z m1083 -721 c-3 -3 -12 -4 -19 -1
-8 3 -5 6 6 6 11 1 17 -2 13 -5z m-910 -776 c-2 -40 -6 -52 -19 -54 -10 -1
-18 2 -18 7 0 5 -6 9 -13 9 -7 0 -14 13 -15 30 -2 21 2 30 12 30 9 0 20 9 26
20 17 32 29 14 27 -42z m1776 -81 c-9 -15 -21 4 -15 25 5 21 6 21 12 2 4 -10
5 -22 3 -27z m30 -1 c-3 -4 -9 -2 -14 5 -13 22 -11 31 5 17 8 -7 12 -17 9 -22z
m1452 -226 c3 -5 1 -10 -4 -10 -6 0 -11 5 -11 10 0 6 2 10 4 10 3 0 8 -4 11
-10z m-215 -130 c0 -22 -24 -27 -50 -10 -12 8 -10 10 8 10 13 0 20 4 17 10 -3
6 1 10 9 10 9 0 16 -9 16 -20z"/>
<path d="M3260 6230 c0 -5 -8 -7 -17 -3 -10 3 -15 3 -12 -1 9 -10 50 -16 44
-6 -3 5 3 11 12 13 14 4 13 5 -4 6 -13 0 -23 -3 -23 -9z"/>
<path d="M2946 6158 c3 -5 10 -6 15 -3 13 9 11 12 -6 12 -8 0 -12 -4 -9 -9z"/>
<path d="M2990 6160 c-13 -8 -12 -10 3 -10 9 0 17 5 17 10 0 12 -1 12 -20 0z"/>
<path d="M3714 5951 c0 -10 6 -18 13 -18 7 0 13 4 13 7 0 4 -6 12 -13 18 -10
8 -13 6 -13 -7z"/>
<path d="M3680 5940 c0 -5 5 -10 11 -10 5 0 7 5 4 10 -3 6 -8 10 -11 10 -2 0
-4 -4 -4 -10z"/>
<path d="M3723 5843 c-17 -6 -17 -20 0 -26 8 -3 13 3 13 14 0 11 0 19 -1 18 0
0 -6 -3 -12 -6z"/>
<path d="M2620 5660 c0 -5 5 -10 10 -10 6 0 10 5 10 10 0 6 -4 10 -10 10 -5 0
-10 -4 -10 -10z"/>
<path d="M4217 5514 c6 -16 13 -17 33 -4 8 5 11 10 5 11 -5 0 -18 2 -27 4 -11
2 -15 -2 -11 -11z"/>
<path d="M2370 5430 c6 -11 13 -20 16 -20 2 0 0 9 -6 20 -6 11 -13 20 -16 20
-2 0 0 -9 6 -20z"/>
<path d="M2410 5439 c0 -5 5 -7 10 -4 6 3 10 8 10 11 0 2 -4 4 -10 4 -5 0 -10
-5 -10 -11z"/>
<path d="M4423 5395 c0 -7 6 -11 14 -8 7 3 13 6 13 8 0 2 -6 5 -13 8 -8 3 -14
-1 -14 -8z"/>
<path d="M2335 5293 c2 -10 4 -19 5 -20 2 -2 3 -7 4 -12 0 -5 4 -12 8 -16 5
-6 3 25 -2 33 -2 1 -3 6 -4 11 0 5 -4 12 -8 16 -3 4 -5 -1 -3 -12z"/>
<path d="M4481 5257 c2 -1 11 -8 21 -15 12 -10 18 -10 24 -1 4 7 3 9 -4 5 -6
-3 -13 -2 -17 4 -3 5 -11 10 -17 10 -6 0 -9 -1 -7 -3z"/>
<path d="M2313 5155 c0 -8 4 -12 9 -9 5 3 6 10 3 15 -9 13 -12 11 -12 -6z"/>
<path d="M2265 5120 c-3 -6 1 -7 9 -4 18 7 21 14 7 14 -6 0 -13 -4 -16 -10z"/>
<path d="M4648 5073 c7 -3 16 -2 19 1 4 3 -2 6 -13 5 -11 0 -14 -3 -6 -6z"/>
<path d="M2144 4939 c0 -16 3 -29 7 -29 3 0 7 11 7 25 0 14 -4 27 -7 30 -4 2
-7 -9 -7 -26z"/>
<path d="M4796 4881 c-3 -5 1 -11 9 -14 9 -4 12 -1 8 9 -6 16 -10 17 -17 5z"/>
<path d="M2063 4770 c1 -26 4 -37 10 -31 15 15 16 71 2 71 -8 0 -12 -15 -12
-40z"/>
<path d="M4860 4802 c0 -4 9 -8 19 -8 11 0 17 4 15 8 -3 4 -12 8 -20 8 -8 0
-14 -4 -14 -8z"/>
<path d="M1886 4413 c-6 -14 -5 -15 5 -6 7 7 10 15 7 18 -3 3 -9 -2 -12 -12z"/>
<path d="M1827 4343 c-3 -5 -1 -17 4 -28 6 -17 7 -16 6 8 -1 28 -3 32 -10 20z"/>
<path d="M1799 4266 c6 -7 7 -17 3 -22 -4 -4 1 -2 11 5 19 15 16 24 -9 27 -11
2 -12 -1 -5 -10z"/>
<path d="M5170 4236 c0 -2 7 -7 16 -10 8 -3 12 -2 9 4 -6 10 -25 14 -25 6z"/>
<path d="M1717 4209 c7 -7 15 -10 18 -7 3 3 -2 9 -12 12 -14 6 -15 5 -6 -5z"/>
<path d="M5280 4160 c0 -6 -6 -8 -12 -4 -7 4 -10 3 -5 -1 11 -13 48 -14 44 -1
-5 14 -27 20 -27 6z"/>
<path d="M5326 4087 c3 -10 9 -15 12 -12 3 3 0 11 -7 18 -10 9 -11 8 -5 -6z"/>
<path d="M5331 3994 c0 -11 3 -14 6 -6 3 7 2 16 -1 19 -3 4 -6 -2 -5 -13z"/>
<path d="M1980 2560 c0 -5 5 -10 10 -10 6 0 10 5 10 10 0 6 -4 10 -10 10 -5 0
-10 -4 -10 -10z"/>
<path d="M5285 1590 c3 -5 8 -10 11 -10 2 0 4 5 4 10 0 6 -5 10 -11 10 -5 0
-7 -4 -4 -10z"/>
<path d="M2129 1498 c-6 -20 -6 -39 0 -42 4 -3 7 6 7 20 0 20 -4 32 -7 22z"/>
<path d="M2202 1426 c7 -8 15 -12 17 -11 5 6 -10 25 -20 25 -5 0 -4 -6 3 -14z"/>
<path d="M5025 1320 c-3 -5 -2 -10 4 -10 5 0 13 5 16 10 3 6 2 10 -4 10 -5 0
-13 -4 -16 -10z"/>
<path d="M3868 1023 c7 -3 16 -2 19 1 4 3 -2 6 -13 5 -11 0 -14 -3 -6 -6z"/>
</g>
</svg>
